<svg id="back-full-body" x="0px" y="0px" viewBox="0 0 190 345" xml:space="preserve" xmlns="http://www.w3.org/2000/svg"
    xmlns:xlink="http://www.w3.org/1999/xlink" style="height: auto; width: 600px;">
    <image
        xlink:href="back-full-body.png"
        height="100%" width="100%" x="0" y="0" class="body-bg-img"></image>
    <path class="layers" fill="#83B7D6" fill-rule="nonzero"
        d="M1.402 93.553c1.24 5.152 2.89 10.206 4.397 15.292 1.088 3.668 2.824 6.715 6.927 7.816.674.18 1.366 1.456 1.498 2.31l.145.955c6.68-1.078 13.39-1.989 20.125-2.665 21.155-2.124 43.093-2.13 63.916 2.658.014-.106.03-.21.045-.316.24-1.723.808-2.727 2.563-3.134 2.367-.55 3.836-2.152 4.727-4.399 3.157-7.968 6.49-15.872 6.359-24.704-.028-1.889.643-3.782.68-5.68.061-3.188-.83-4.257-3.958-4.908-1.657-.345-1.365-1.432-1.207-2.477 1.428-9.43.572-18.775-1.06-28.08-3.637-20.715-15.639-34.963-34.55-43.35C65.31-.101 57.903.104 50.636 1.4c-14.55 2.595-25.617 10.623-34.4 22.107C8.646 33.43 6.173 45.13 5.378 57.23c-.407 6.198-.071 12.446-.071 18.715C.488 77.303-.485 78.987.304 84.387c.445 3.046.383 6.195 1.098 9.166"
        opacity=".525" transform="scale(0.26,0.26), translate(310,33)"></path>
    <path class="layers" fill="#83B7D6" fill-rule="nonzero"
        d="M19.597 26.974C13.603 31.746 7.34 36.08.673 39.791a384.197 384.197 0 0 0 22.81 3.9c21.242 2.959 42.896 4.15 64.278 2.08 10.42-1.01 20.857-2.841 30.917-5.831a150.887 150.887 0 0 1-4.113-2.582c-4.939-3.22-9.595-6.88-14.28-10.47-.615-.472-1.035-1.73-.923-2.537.904-6.494 1.982-12.964 2.906-19.456-27.238-6.332-56.334-4.43-83.751.013.98 6.43 1.902 12.872 2.67 19.331.1.851-.802 2.108-1.59 2.735"
        opacity=".525" transform="scale(0.26,0.26), translate(305,150)"></path>
    <path class="layers" fill="#83B7D6" fill-rule="nonzero"
        d="M100.278 2.494c-6.976 3.174-13.513 7.523-20.719 9.935-12.797 4.284-24.679 10.415-36.717 16.28-7.136 3.476-12.556 8.766-16.944 15.458-5.766 8.792-8.953 18.637-12.769 28.25-2.261 5.696-4.03 11.67-6.966 16.997C3.935 93.46 2.164 97.608.74 101.862c9.498 4.218 18.824 8.83 28.02 13.688 7.188 3.798 14.575 7.29 21.645 11.302 4.907 2.785 9.71 5.957 13.619 10.031.244-.614.48-1.234.701-1.86.78-2.212 1.998-4.276 3.098-6.364.158-.3.398-.56.726-.882.12-3.738.236-7.476.356-11.214.395-12.259.838-24.519 1.622-36.76.683-10.667 1.969-20.718 5.966-30.715 6.95-17.38 18.575-32.285 27.74-48.495-1.303.657-2.619 1.293-3.954 1.9"
        opacity=".525" transform="scale(0.26,0.25), translate(195,204)"></path>
    <path class="layers" fill="#83B7D6" fill-rule="nonzero"
        d="M77.86 24.6c-6.74-3.665-13.65-7.038-20.44-10.612C48.557 9.322 39.57 4.891 30.423.826c-1.565 4.865-2.688 9.87-3.519 15.022-.577 3.578-2.685 7.086-4.72 10.22C15.32 36.642 9.798 47.881 4.813 59.421c-1.133 2.624-2.396 5.155-3.887 7.54 6.511 1.797 12.838 4.212 18.823 7.361 10.574 5.562 19.448 13.155 26.928 22.005 3.685-4.469 7.463-8.866 11.203-13.289 7.125-8.427 14.538-16.619 21.448-25.216 5.483-6.82 10.835-13.787 14.277-21.932-4.416-4.73-10.093-8.218-15.744-11.29"
        opacity=".525" transform="scale(0.255,0.29), translate(168,263)"></path>
    <path class="layers" fill="#83B7D6" fill-rule="nonzero"
        d="M53.43 67.08l.297-1.127c2.941-11.099 9.18-20.399 16.06-29.282a298.064 298.064 0 0 1 5.31-6.638c-3.95-4.677-8.304-9.004-13.101-12.838C52.36 9.492 41.206 4.108 29.35.858c-1.608 2.439-3.476 4.715-5.722 6.763C14.362 16.069 6.889 25.75.648 36.25c15.146 13.773 33.23 24.741 52.783 30.83"
        opacity=".525" transform="scale(0.26,0.29), translate(132,330)"></path>
    <path class="layers" fill="#83B7D6" fill-rule="nonzero"
        d="M42.123.143c-3.98 6.803-7.457 13.938-10.574 21.299-7.458 17.61-14.227 35.516-21.89 53.033C6.78 81.053 3.633 87.52.367 93.928c7.636 7.41 16.07 14.011 24.974 19.82 2.59 1.69 5.23 3.32 7.92 4.874a577.185 577.185 0 0 1 9.644-12.711c8.335-10.707 17.063-21.126 25.021-32.103 8.646-11.926 16.699-24.287 24.779-36.61 1.182-1.804 1.875-3.974 2.466-6.146-19.64-6.11-37.812-17.09-53.049-30.909"
        opacity=".525" transform="scale(0.25,0.26), translate(94,412)"></path>
    <path class="layers" fill="#83B7D6" fill-rule="nonzero"
        d="M38.375 65.762c.805-4.428 2.795-8.35 4.948-12.191 5.487-9.793 11.729-19.085 18.337-28.124a169.371 169.371 0 0 1-7.829-4.826c-8.88-5.797-17.31-12.37-24.946-19.745-2.359 4.61-4.776 9.19-7.206 13.755-3.148 5.918-7.239 11.33-10.844 17.01C8.444 35.41 6.04 39.18 3.851 43.066A88.91 88.91 0 0 1 .06 49.195c11.131 8.4 24.414 13.615 38.316 16.567"
        opacity=".525" transform="scale(0.26,0.25), translate(60,527)"></path>
    <path class="layers" fill="#83B7D6" fill-rule="nonzero"
        d="M28.498.031c-2.564 3.7-5.418 7.178-8.607 10.398-1.078 1.089-2.666 1.702-4.07 2.434-1.095.572-2.193 1.138-3.29 1.707-.881 3.673-2.722 6.93-4.953 10.094C5.02 28.29 2.715 31.86.58 35.702c.119-.137.238-.274.352-.418.346-.435.856-.739 1.669-1.422-.125.762-.09 1.09-.227 1.31-.723 1.16-1.443 2.32-2.164 3.482.025.026.053.046.074.082 5.253 8.825 14.585 14.611 23.69 18.832a108.37 108.37 0 0 0 23.54 7.778c6.094-10.355 13.789-19.925 17.088-31.738 1.306-4.675 2.255-9.582 2.404-14.413.027-.888.112-1.753.235-2.6C53.303 13.644 39.8 8.494 28.498.03"
        opacity=".525" transform="scale(0.26,0.26), translate(30,555)"></path>
    <path class="layers" fill="#83B7D6" fill-rule="nonzero"
        d="M18.029 24.96c-.391-.077-1-1.538-.792-1.808 3.895-5.055 7.897-10.027 11.882-15.011.102-.127.265-.213.413-.29C34.464 5.3 39.4 2.751 44.33.194c-1.04 3.6-3.054 6.78-5.291 9.89-2.695 3.745-4.97 7.522-7.143 11.59l-.59 1.099c-2.117 1.504-4.596 2.338-7.172 2.817-1.939.361-4.093-.237-6.105-.63zm61.94 26.305c-2.342 3.871-5.915 6.931-4.71 12.106.035.15-.057.329-.086.495-.866 4.975-1.63 9.971-2.629 14.92-.795 3.944-1.556 7.952-2.988 11.68-.554 1.44-2.914 2.185-4.452 3.247-.56-1.574-1.646-3.166-1.594-4.72.336-10.192.93-20.376 1.393-30.565.033-.734-.305-1.485-.47-2.228-.785.374-1.895.54-2.295 1.161a45.316 45.316 0 0 0-3.323 6.181c-1.187 2.693-2.17 5.479-3.197 8.24-2.845 7.649-5.632 15.32-8.521 22.953-.86 2.27-1.8 4.548-3.034 6.627-1.098 1.85-5.194 3.363-6.447 2.534-2.16-1.43-1.4-3.696-.947-5.537 2.437-9.9 4.861-19.812 7.676-29.608 1.363-4.74 3.603-9.226 5.359-13.859.257-.677.032-1.537.03-2.312-.752.196-1.702.175-2.212.638-.846.767-1.592 1.764-2.059 2.808-3.643 8.15-7.34 16.279-10.74 24.53-1.458 3.542-2.095 7.414-3.393 11.033-.838 2.332-1.923 4.69-3.415 6.638-1.123 1.466-2.698 3.5-5.037 2.494-2.316-.997-1.685-3.382-1.797-5.363-.358-6.39 1.847-12.21 3.613-18.206 2.62-8.896 4.892-17.881 8.877-26.312.947-2 1.737-4.076 2.6-6.116-.854-.022-1.314.189-1.59.542-3.113 3.98-6.191 7.987-9.29 11.98-4.337 5.59-8.544 11.29-13.076 16.719-2.958 3.54-6.456 6.544-11.719 5.275v-3.038c.353-.444.787-.845 1.042-1.34 1.812-3.515 3.334-7.21 5.43-10.543 3.716-5.91 7.888-11.529 11.66-17.405 4.744-7.391 9.365-14.863 14-22.325 5.256 8.582 14.28 14.334 23.19 18.551a108.803 108.803 0 0 0 24.15 8.125z"
        opacity=".525" transform="scale(0.26,0.26), translate(0,570)"></path>
    <path class="layers" fill="#83B7D6" fill-rule="nonzero"
        d="M4.702 2.456C11.677 5.63 18.214 9.979 25.42 12.39c12.798 4.284 24.68 10.415 36.718 16.28 7.136 3.476 12.555 8.765 16.944 15.457 5.765 8.793 8.952 18.638 12.768 28.25 2.262 5.697 4.031 11.67 6.966 16.998 2.228 4.045 4 8.194 5.425 12.448-9.499 4.218-18.825 8.83-28.02 13.687-7.189 3.798-14.575 7.29-21.645 11.303-4.907 2.784-9.71 5.957-13.62 10.03a50.43 50.43 0 0 1-.7-1.86c-.781-2.212-1.998-4.275-3.098-6.363-.159-.301-.398-.56-.727-.883-.119-3.738-.235-7.476-.356-11.213-.394-12.26-.837-24.52-1.621-36.76-.684-10.668-1.97-20.719-5.966-30.715C21.538 31.67 9.912 16.765.748.555c1.302.657 2.618 1.293 3.954 1.9"
        opacity=".525" transform="scale(0.26,0.25), translate(430,204)"></path>
    <path class="layers" fill="#83B7D6" fill-rule="nonzero"
        d="M16.12 24.56c6.74-3.664 13.65-7.036 20.44-10.61C45.422 9.284 54.41 4.852 63.556.787c1.564 4.866 2.688 9.87 3.518 15.023.577 3.578 2.685 7.086 4.72 10.22 6.866 10.574 12.388 21.813 17.373 33.353 1.132 2.624 2.396 5.154 3.886 7.54-6.51 1.797-12.837 4.212-18.823 7.36-10.574 5.563-19.448 13.156-26.928 22.005C43.618 91.82 39.841 87.423 36.101 83c-7.125-8.427-14.539-16.619-21.449-25.217C9.17 50.963 3.818 43.996.375 35.851c4.417-4.729 10.093-8.218 15.745-11.29"
        opacity=".525" transform="scale(0.255,0.29), translate(485,263)"></path>
    <path class="layers" fill="#83B7D6" fill-rule="nonzero"
        d="M22.549 67.042l-.296-1.127c-2.942-11.1-9.18-20.4-16.06-29.282a298.064 298.064 0 0 0-5.31-6.638c3.949-4.677 8.303-9.004 13.1-12.839C23.62 9.454 34.775 4.07 46.63.82c1.609 2.438 3.477 4.715 5.723 6.762 9.266 8.449 16.738 18.131 22.979 28.63-15.145 13.773-33.23 24.74-52.782 30.83"
        opacity=".525" transform="scale(0.26,0.29), translate(523,330)"></path>
    <path class="layers" fill="#83B7D6" fill-rule="nonzero"
        d="M53.856.105c3.98 6.802 7.457 13.937 10.575 21.298 7.458 17.61 14.227 35.517 21.89 53.033 2.878 6.578 6.024 13.046 9.29 19.454-7.636 7.409-16.07 14.01-24.973 19.819-2.59 1.69-5.23 3.321-7.92 4.875a577.187 577.187 0 0 0-9.645-12.712C44.74 95.165 36.011 84.747 28.053 73.77c-8.646-11.925-16.7-24.287-24.78-36.61C2.092 35.356 1.4 33.186.809 31.013c19.64-6.11 37.812-17.09 53.048-30.908"
        opacity=".525" transform="scale(0.25,0.26), translate(570,412)"></path>
    <path class="layers" fill="#83B7D6" fill-rule="nonzero"
        d="M23.604 65.723c-.805-4.427-2.794-8.35-4.947-12.19C13.17 43.74 6.927 34.447.32 25.408a169.372 169.372 0 0 0 7.829-4.826c8.88-5.798 17.31-12.37 24.945-19.745 2.36 4.609 4.777 9.189 7.206 13.754 3.15 5.919 7.24 11.332 10.844 17.01 2.392 3.769 4.795 7.538 6.985 11.426a88.91 88.91 0 0 0 3.791 6.129c-11.13 8.4-24.413 13.615-38.316 16.566"
        opacity=".525" transform="scale(0.26,0.25), translate(610,527)"></path>
    <path class="layers" fill="#83B7D6" fill-rule="nonzero"
        d="M39.482-.007c2.564 3.7 5.417 7.178 8.607 10.398 1.078 1.088 2.665 1.702 4.069 2.434 1.096.571 2.194 1.137 3.29 1.707.882 3.673 2.722 6.93 4.954 10.093 2.558 3.627 4.863 7.197 6.998 11.039a12.405 12.405 0 0 1-.353-.419c-.345-.434-.855-.738-1.668-1.422.124.763.089 1.09.226 1.31.723 1.16 1.443 2.322 2.165 3.482-.025.027-.054.046-.075.082-5.253 8.825-14.584 14.612-23.689 18.832a108.37 108.37 0 0 1-23.54 7.779C14.372 54.953 6.676 45.382 3.377 33.57 2.072 28.895 1.123 23.988.974 19.157a22.976 22.976 0 0 0-.235-2.6c13.937-2.95 27.44-8.1 38.743-16.564"
        opacity=".525" transform="scale(0.26,0.26), translate(632,555)"></path>
    <path class="layers" fill="#83B7D6" fill-rule="nonzero"
        d="M61.95 24.922c-2.012.392-4.166.991-6.105.63-2.575-.48-5.055-1.314-7.17-2.818-.198-.366-.395-.732-.591-1.099-2.173-4.067-4.449-7.845-7.143-11.59-2.237-3.109-4.252-6.29-5.291-9.89 4.93 2.557 9.865 5.105 14.797 7.658.149.077.312.163.413.29 3.986 4.984 7.988 9.956 11.882 15.01.208.271-.4 1.732-.791 1.809zM.012 51.226a108.803 108.803 0 0 0 24.151-8.124c8.909-4.217 17.934-9.97 23.19-18.552 4.635 7.463 9.256 14.934 14 22.326 3.771 5.876 7.944 11.495 11.66 17.404 2.096 3.334 3.618 7.029 5.43 10.545.255.493.69.894 1.042 1.339v3.038c-5.263 1.268-8.762-1.735-11.719-5.276-4.533-5.428-8.74-11.129-13.077-16.719-3.098-3.992-6.177-7.999-9.289-11.98-.276-.353-.736-.563-1.59-.542.862 2.041 1.653 4.116 2.6 6.117 3.985 8.43 6.257 17.416 8.877 26.312 1.766 5.996 3.97 11.816 3.612 18.205-.11 1.981.52 4.367-1.796 5.363-2.34 1.006-3.914-1.028-5.037-2.494-1.493-1.948-2.578-4.305-3.415-6.638-1.298-3.619-1.935-7.49-3.394-11.032-3.399-8.252-7.096-16.38-10.74-24.53-.466-1.044-1.213-2.04-2.059-2.809-.509-.463-1.46-.441-2.211-.637-.002.775-.227 1.634.03 2.312 1.756 4.633 3.996 9.118 5.359 13.859 2.814 9.796 5.238 19.707 7.676 29.608.452 1.84 1.212 4.107-.948 5.537-1.253.828-5.348-.684-6.447-2.535-1.233-2.078-2.174-4.357-3.033-6.626-2.89-7.633-5.676-15.305-8.522-22.954-1.027-2.76-2.01-5.546-3.197-8.239a45.316 45.316 0 0 0-3.323-6.181c-.4-.621-1.51-.787-2.294-1.161-.165.743-.504 1.494-.47 2.228.462 10.189 1.057 20.372 1.393 30.565.051 1.554-1.035 3.145-1.594 4.72-1.538-1.062-3.899-1.808-4.452-3.247C8.992 86.7 8.23 82.69 7.435 78.748c-.998-4.949-1.762-9.945-2.628-14.92-.03-.166-.122-.346-.086-.496 1.205-5.174-2.368-8.234-4.71-12.106z"
        opacity=".525" transform="scale(0.26,0.26), translate(652,571)"></path>
    <path class="layers" fill="#83B7D6" fill-rule="nonzero"
        d="M1.003 130.486c-.501 9.516.867 18.757 2.838 27.947 12.996 1.934 26.09 3.146 39.216 3.805 26.995 1.356 53.977.134 80.976-.349 13.017-.233 26.065-.95 39.08-.913 8.87.025 18.03.569 26.843-.86 2.206-10.082 4.026-20.25 6.05-30.372.1-.5.414-.96.89-1.988-3.719-43.927-10.4-88.566-34.522-126.254-.738-.427-1.475-.856-2.208-1.293-1.347.41-2.699.798-4.057 1.166-20.88 5.654-42.832 6.79-64.357 5.728-18.031-.889-35.972-3.381-53.66-7-.413.224-.83.442-1.247.661-5.114 9.242-11.017 18.011-16.542 27.009-5.207 8.48-10.11 17.241-13.36 26.681-3.6 10.458-4.145 21.265-4.755 32.219-.763 13.678-1.158 27.371-1.595 41.063l.097-.1c.166 1.447.35 2.155.313 2.85"
        opacity=".525" transform="scale(0.26,0.26), translate(266,193)"></path>
    <path class="layers" fill="#83B7D6" fill-rule="nonzero"
        d="M153.889 2.502C102.61 3.19 50.952 7.49 0 0c.553 2.53 1.146 5.057 1.757 7.586 1.013 4.19 1.863 8.42 2.64 12.668 8.315 3.14 16.118 7.736 21.728 14.787 6.04 7.591 8.702 17.096 9.28 26.674.638 10.575-1.262 21.001-6.774 30.141-.155.256-.318.505-.476.758l.211-.001a.454.454 0 0 1 .374-.175c41.623.007 83.24.973 124.863 1-4.586-11.03-6.523-22.993-3.955-34.847 4.053-18.705 13.68-37.888 31.549-45.753a313.152 313.152 0 0 1 2.167-10.613c.04-.177.076-.354.115-.53-9.716 1.518-19.825.676-29.59.807"
        opacity=".525" transform="scale(0.26,0.26), translate(270,356)"></path>
    <path class="layers" fill="#83B7D6" fill-rule="nonzero"
        d="M164.647 21.262c-7.087-3.916-11.834-10.463-15.263-17.666a80.093 80.093 0 0 1-1.18-2.6C106.952.977 65.704.032 24.449 0a.457.457 0 0 1-.365.163c-.803 0-1.604.009-2.404.025C16.722 7.7 9.993 13.68 2.38 18.438c-.07.98-.141 1.962-.221 2.943-.37 4.535-1.06 9.108-2.159 13.532 16.012.89 31.832 3.998 47.75 5.868 16.622 1.953 33.526 2.048 50.247 2.022 8.5-.013 17-.228 25.482-.792 7.861-.524 15.635-1.662 23.47-2.403 9.003-.852 18.047-1.532 26.986-2.918-.968-4.025-1.665-8.107-1.966-12.276-2.532-.845-4.992-1.865-7.322-3.152"
        opacity=".525" transform="scale(0.26,0.26), translate(277,452)"></path>
    <path class="layers" fill="#83B7D6" fill-rule="nonzero"
        d="M4.462 90.039c.114-.073.23-.142.344-.215C13.028 84.524 20.36 77.623 25.123 69c5.267-9.536 6.634-20.331 5.528-31.064-.99-9.595-4.39-18.897-11.115-25.964C14.326 6.499 7.726 2.766.732.078c.89 4.94 1.69 9.902 2.517 14.851 2.174 13.002 2.529 26.164 2.924 39.304.118 3.945-.341 7.907-.537 11.861-.396 7.982-.642 15.975-1.174 23.945"
        opacity=".525" transform="scale(0.26,0.26), translate(274,378)"></path>
    <path class="layers" fill="#83B7D6" fill-rule="nonzero"
        d="M27.526 39.007A323.769 323.769 0 0 1 32.188.641c-8.68 3.96-15.652 10.685-20.67 19.03-2.65 4.405-4.76 9.118-6.473 13.96-2.122 6.003-3.999 12.29-4.556 18.65C-.607 64.787 3.06 77.59 9.343 88.366c3.887 6.67 9.292 11.832 16.476 14.772 1.016.415 2.045.794 3.085 1.145-.013-.217-.029-.435-.039-.654-.356-7.994-.178-16.03-.91-23.985-.656-7.15-1.307-14.231-.853-21.43.402-6.386.03-12.82.424-19.207"
        opacity=".525" transform="scale(0.26,0.26), translate(421,370)"></path>
    <path class="layers" fill="#83B7D6" fill-rule="nonzero"
        d="M15.683 14.111c2.149 2.237 3.931 4.753 5.728 7.272 1.071 1.5 2.145 3.003 3.332 4.415.597.71 2.293 3.046 3.223 2.953 1.04-.105 3.348-3.22 4.171-4.018a179.858 179.858 0 0 1 4.08-3.83 216.09 216.09 0 0 1 8.553-7.374c5.102-4.182 10.377-8.146 15.736-11.99-7.934.373-15.88.48-23.824.431C24.43 1.896 12.176 1.702-.03.795c5.332 4.33 10.94 8.349 15.714 13.316"
        opacity=".525" transform="scale(0.26,0.26), translate(336,496)"></path>
    <path class="layers" fill="#83B7D6" fill-rule="nonzero"
        d="M195.465 53.72c-1.934-6.275-3.81-12.59-5.163-19.021-2.244-10.673-3.932-25.355 5.97-32.651-9.913 1.23-19.851 1.868-29.753 2.914-8.54.9-17.009 1.994-25.593 2.458-12.662 8.63-24.342 17.884-34.627 28.617-.204.214-.507.17-.716 0-5.175-4.207-8.04-10.448-12.617-15.21-5.084-5.29-11.119-9.5-16.754-14.161-4.44-.361-8.87-.813-13.293-1.396C48.537 3.378 34.193.788 19.7.004c-.085.324-.166.648-.256.969-.131.465-.268.928-.4 1.393 4.592 8.067 7.076 17.242 8.32 26.413 2.423 17.871 1.411 37.104-9.288 52.274C13.309 87.81 7.236 93.333.532 98.059c5.498 3.51 11.404 6.35 17.435 8.851 7.084 2.938 14.344 5.423 21.56 8.013 7.048 2.529 13.92 5.375 20.814 8.287 12.216 5.159 24.676 9.454 37.666 11.696-3.372-2.65-6.013-6.198-7.502-10.319-1.992-5.512-1.643-11.945 2.157-16.61 4.459-5.473 12.393-7.226 19.143-6.813 7.18.44 14.875 3.774 15.466 11.904.601 8.261-7.284 14.63-13.025 19.4 9.222-3.581 17.48-1.214 26.68-4.577 9.958-3.64 69.18-24.965 74.168-29.832"
        opacity=".525" transform="scale(0.26,0.26), translate(258,490)"></path>
    <path class="layers" fill="#83B7D6" fill-rule="nonzero"
        d="M23.57 29.718c5.932-4.925 14.888-12.143 12.272-20.81-2.282-7.56-11.096-9.215-18.02-8.71C11.732.642 5.1 3.08 2.034 8.713c-4.684 8.603.09 18.554 7.514 23.972 1.29-1.873 3.068-3.42 5.231-4.664 2.764-1.59 6.148-1.157 8.345 1.201.151.163.297.332.446.496"
        opacity=".525" transform="scale(0.26,0.26), translate(348,592)"></path>
    <path class="layers" fill="#83B7D6" fill-rule="nonzero"
        d="M2.72 92.934c13.855-10.232 23.584-24.595 25.224-42.025 1.553-16.519-.087-35.306-8.29-50.192-2.326 7.974-5.001 15.853-7.639 23.734C6.581 40.685 3.062 57.285 1.93 74.39c-.441 6.658-.795 13.328-1.241 19.989.68-.477 1.362-.95 2.03-1.444"
        opacity=".525" transform="scale(0.26,0.26), translate(256,492)"></path>
    <path class="layers" fill="#83B7D6" fill-rule="nonzero"
        d="M8.246 52.997c2.43 7.444 11.211 32.66 18.68 36.267.615.296-3.484-31.31-4.65-37.754-1.598-8.835-4.54-17.43-6.963-26.112-1.378-4.94-2.694-9.914-4.424-14.734C9.636 7.174 8.506 3.66 7.557.11 2.441 4.105.727 10.533.628 16.927c-.187 12.178 3.876 24.608 7.618 36.07z"
        opacity=".525" transform="scale(0.26,0.26), translate(448,492)"></path>
    <path class="layers" fill="#83B7D6" fill-rule="nonzero"
        d="M18.42 33.91c15.355-4.724 29.857-11.857 44.984-17.244C75.784 12.257 88.528 7.876 99.61.682c.417 6.04.917 12.07 1.642 18.073 1.793 14.808 4.565 29.499 6.957 44.233 2 12.323 3.922 24.662 6.14 36.948 3.585 19.854 4.157 39.916 4.234 59.993.052 13.656-.398 27.319-.82 40.972-.186 6.007 2.369 11.337 3.528 17.005 2.077 10.151 4.203 20.291 6.189 30.46 1.761 9.017 2.104 18.141 2.407 27.277-2.955-.78-5.956-1.377-8.929-1.857-18.937-3.057-38.721-1.855-57.523 1.573-.702.128-1.404.266-2.105.402-3.024-7.456-6.372-14.82-7.184-23.028-.338-3.412-1.413-6.759-2.218-10.119-1.883-7.862-3.735-15.734-5.733-23.568-1.975-7.74-2.658-15.838-6.406-23.09-1.198-2.32-2.536-4.603-3.423-7.044-3.74-10.286-7.452-20.586-10.948-30.957-4.119-12.22-8.149-24.475-11.944-36.8-2.87-9.324-6.162-18.643-7.72-28.216-1.763-10.852-1.8-21.986-2.591-32.996-.41-5.708-.703-11.428-1.279-17.118-.177-1.757-.655-3.333-1.383-4.747a131.102 131.102 0 0 0 17.92-4.168"
        opacity=".525" transform="scale(0.26,0.26), translate(375,595)"></path>
    <path class="layers" fill="#83B7D6" fill-rule="nonzero"
        d="M66.959 59.237c-15.133 6.095-32.202 11.274-49.23 12.632-1.354-12.737-3.798-25.278-6.552-37.824C8.935 23.835 4.901 14.326 1.1 4.682.961 4.33.82 3.98.678 3.628 12.152 1.38 23.89.289 35.474.154 44.498.05 53.59.564 62.468 2.25c2.155.41 4.316.889 6.454 1.463.076 2.31.154 4.62.254 6.928.303 6.936 1.64 13.735 5.252 20.085 3.788 6.66 6.868 13.631 9.512 20.78a211.197 211.197 0 0 1-16.981 7.731"
        opacity=".525" transform="scale(0.26,0.26), translate(440,870)"></path>
    <path class="layers" fill="#83B7D6" fill-rule="nonzero"
        d="M78.989 101.465c-2.346 7.888-2.543 15.927-2.855 24.02l-.062 1.588c-3.945 2.186-8.062 4.057-12.293 5.644-12.872 4.828-26.667 7.451-40.587 8.294a644.71 644.71 0 0 0-1.362-6.48c-1.844-8.557-3.977-17.074-6.487-25.458-1.708-5.702-4.727-11.015-6.396-16.726C3.553 73.9 2.26 54.812 1.797 35.774c-.123-5.076-.471-10.108-.985-15.11 10.444-.838 20.81-3.033 30.811-5.969C43.913 11.088 55.87 6.278 67.288.463 69.23 5.804 70.94 11.24 72.52 16.717c3.435 11.913 6.673 23.868 8.448 36.186 1.531 10.634 2.82 21.289 1.546 32-.665 5.585-1.919 11.163-3.524 16.562"
        opacity=".525" transform="scale(0.26,0.26), translate(455,925)"></path>
    <path class="layers" fill="#83B7D6" fill-rule="nonzero"
        d="M48.442 75.235c-1.598 9.563.24 18.813 1.783 28.11.13.785.28 1.562.44 2.337a104.08 104.08 0 0 0-26.204 2.095c-5.781 1.21-11.451 2.84-17.052 4.695-.02-2.775.106-5.56.44-8.36.598-5.007 1.118-10.08.992-15.105-.18-7.144-.897-14.28-1.545-21.406-.993-10.915-1.814-21.859-3.287-32.713-.954-7.026-2.221-14.02-3.634-20.98C18.611 12.874 37.158 9.01 53.025.275c-.707 18.283-1.455 36.566-2.403 54.837-.35 6.73-1.07 13.477-2.18 20.123"
        opacity=".525" transform="scale(0.26,0.26), translate(480,1055)"></path>
    <path class="layers" fill="#83B7D6" fill-rule="nonzero"
        d="M3.79 106.26C1.72 102.785-.144 99.213.412 94.954c.664-5.09 1.738-10.126 2.4-15.215.359-2.766.577-5.633.262-8.386-.902-7.9-.683-15.721.44-23.585.748-5.231 1.505-10.55 1.314-15.797-.162-4.434-1.86-8.791-2.563-13.232-1.053-6.662-.759-4.756-.897-11.484 4.955-1.641 9.964-3.103 15.064-4.238A99.985 99.985 0 0 1 42.998.727c1.728 7.756 3.549 6.516 6.395 13.902 2.176 5.649 2.757 11.114 1.209 16.966-.432 1.63-.22 3.778.506 5.306 3.846 8.094 5.685 16.521 5.54 25.486-.048 2.984.662 6.028 1.366 8.964.937 3.908 2.18 7.745 3.353 11.595.275.904.704 1.79 1.214 2.588 2.404 3.755 2.802 7.762 1.931 12.066-.154.764-.218 1.546-.259 2.333-18.824 7.506-40.132 9.45-60.463 6.327z"
        opacity=".525" transform="scale(0.26,0.27), translate(488,1120)"></path>
    <path class="layers" fill="#83B7D6" fill-rule="nonzero"
        d="M0 6.086C20.082 8.934 41.144 7.2 60 0c-.045 1.012-.102 2.023-.325 2.997-.531 2.316-1.292 4.65-2.394 6.758-1.098 2.101-3.15 2.54-5.436 1.581-.427-.178-.909-.231-1.327-.333-3.003 4.826-4.208 5.276-7.734 3.392-1.52 1.436-2.711 3.398-4.368 3.892-1.674.498-3.808-.46-6.053-.833L29.977 21h-5.35l-3.986-5.072-7.2 5.072h-1.46c-1.052-.661-2.082-1.361-3.162-1.978C4.53 16.57.437 14.024 1.054 8.218c.06-.579-.51-1.254-.87-1.835L0 6.086"
        opacity=".525" transform="scale(0.26,0.27), translate(492,1223)"></path>
    <path class="layers" fill="#83B7D6" fill-rule="nonzero"
        d="M111.788 33.91c-15.355-4.724-29.857-11.857-44.985-17.244C54.423 12.257 41.68 7.876 30.598.682c-.416 6.04-.916 12.07-1.642 18.073C27.164 33.563 24.392 48.254 22 62.988c-2 12.323-3.921 24.662-6.14 36.948-3.584 19.854-4.156 39.916-4.233 59.993-.053 13.656.397 27.319.82 40.972.185 6.007-2.37 11.337-3.528 17.005-2.077 10.151-4.203 20.291-6.189 30.46C.967 257.382.624 266.506.321 275.642c2.955-.78 5.956-1.377 8.93-1.857 18.937-3.057 38.72-1.855 57.523 1.573.702.128 1.403.266 2.105.402 3.024-7.456 6.372-14.82 7.183-23.028.338-3.412 1.413-6.759 2.218-10.119 1.884-7.862 3.735-15.734 5.733-23.568 1.975-7.74 2.659-15.838 6.406-23.09 1.199-2.32 2.537-4.603 3.423-7.044 3.74-10.286 7.452-20.586 10.948-30.957 4.12-12.22 8.15-24.475 11.944-36.8 2.871-9.324 6.163-18.643 7.72-28.216 1.764-10.852 1.8-21.986 2.592-32.996.41-5.708.702-11.428 1.278-17.118.178-1.757.655-3.333 1.384-4.747a131.102 131.102 0 0 1-17.92-4.168"
        opacity=".525" transform="scale(0.26,0.26), translate(222,595)"></path>
    <path class="layers" fill="#83B7D6" fill-rule="nonzero"
        d="M17.249 59.237c15.133 6.095 32.201 11.274 49.23 12.632 1.354-12.737 3.797-25.278 6.551-37.824 2.243-10.21 6.276-19.719 10.078-29.363.139-.352.28-.703.421-1.054C72.056 1.38 60.318.289 48.733.154 39.71.05 30.617.564 21.74 2.25c-2.155.41-4.317.889-6.455 1.463-.076 2.31-.154 4.62-.254 6.928-.302 6.936-1.639 13.735-5.251 20.085-3.788 6.66-6.868 13.631-9.513 20.78a211.197 211.197 0 0 0 16.982 7.731"
        opacity=".525" transform="scale(0.26,0.26), translate(208,870)"></path>
    <path class="layers" fill="#83B7D6" fill-rule="nonzero"
        d="M4.219 101.465c2.346 7.888 2.543 15.927 2.854 24.02.02.53.042 1.059.063 1.588 3.944 2.186 8.062 4.057 12.293 5.644 12.872 4.828 26.666 7.451 40.586 8.294.443-2.163.898-4.323 1.362-6.48 1.844-8.557 3.978-17.074 6.488-25.458 1.708-5.702 4.727-11.015 6.396-16.726 5.393-18.447 6.686-37.535 7.149-56.573.124-5.076.472-10.108.986-15.11-10.444-.838-20.81-3.033-30.812-5.969C39.294 11.088 27.338 6.278 15.92.463c-1.942 5.341-3.65 10.777-5.23 16.254C7.252 28.63 4.014 40.585 2.24 52.903.709 63.537-.58 74.192.695 84.903c.665 5.585 1.918 11.163 3.524 16.562"
        opacity=".525" transform="scale(0.26,0.26), translate(190,925)"></path>
    <path class="layers" fill="#83B7D6" fill-rule="nonzero"
        d="M4.766 75.235c1.597 9.563-.24 18.813-1.783 28.11a61.69 61.69 0 0 1-.44 2.337 104.08 104.08 0 0 1 26.203 2.095c5.782 1.21 11.452 2.84 17.053 4.695.019-2.775-.107-5.56-.44-8.36-.599-5.007-1.118-10.08-.992-15.105.179-7.144.896-14.28 1.544-21.406.993-10.915 1.815-21.859 3.287-32.713.954-7.026 2.222-14.02 3.634-20.98C34.596 12.874 16.05 9.01.182.275.89 18.558 1.639 36.84 2.587 55.112c.35 6.73 1.07 13.477 2.18 20.123"
        opacity=".525" transform="scale(0.26,0.26), translate(198,1055)"></path>
    <path class="layers" fill="#83B7D6" fill-rule="nonzero"
        d="M62.2 106.542c2.105-3.546 4.001-7.19 3.436-11.537-.675-5.193-1.768-10.33-2.44-15.524-.366-2.822-.588-5.747-.268-8.557.918-8.06.695-16.04-.448-24.064-.76-5.337-1.53-10.765-1.336-16.118.165-4.524 1.893-8.97 2.607-13.5 1.072-6.798 1.745-3.125 1.885-9.99-5.04-1.675-10.136-3.167-15.324-4.325A101.414 101.414 0 0 0 23.288.59C21.53 8.505 13.005 24.387 14.58 30.36c.439 1.663.224 3.855-.515 5.414-3.912 8.258-5.783 16.857-5.635 26.004.049 3.045-.674 6.15-1.39 9.146-.954 3.988-2.219 7.903-3.411 11.83-.28.923-.716 1.827-1.236 2.64C-.052 89.227-.457 93.315.43 97.706c.157.78.222 1.578.264 2.38 19.149 7.66 40.825 9.643 61.506 6.457z"
        opacity=".525" transform="scale(0.26,0.27), translate(175,1120)"></path>
    <path class="layers" fill="#83B7D6" fill-rule="nonzero"
        d="M61 6.376C40.583 9.36 19.17 7.543 0 0c.045 1.06.104 2.119.33 3.14.54 2.426 1.314 4.87 2.434 7.08 1.117 2.201 3.203 2.66 5.527 1.656.434-.187.924-.242 1.35-.349 3.052 5.056 4.277 5.527 7.862 3.554 1.545 1.504 2.756 3.56 4.441 4.077 1.701.521 3.871-.483 6.154-.873L30.523 22h5.44l4.052-5.313L47.335 22h1.484c1.07-.693 2.117-1.426 3.215-2.072 4.362-2.569 8.522-5.236 7.895-11.32-.062-.605.518-1.312.884-1.92L61 6.375"
        opacity=".525" transform="scale(0.26,0.27), translate(178,1223)"></path>
</svg>